<?xml version="1.0" standalone="no"?>
<!DOCTYPE svg PUBLIC "-//W3C//DTD SVG 20010904//EN"
 "http://www.w3.org/TR/2001/REC-SVG-20010904/DTD/svg10.dtd">
<svg version="1.0" xmlns="http://www.w3.org/2000/svg"
 width="447.000000pt" height="355.000000pt" viewBox="0 0 447.000000 355.000000"
 preserveAspectRatio="xMidYMid meet">

<g transform="translate(0.000000,355.000000) scale(0.100000,-0.100000)"
fill="#000000" stroke="none">
<path d="M0 1775 l0 -1775 2235 0 2235 0 0 1775 0 1775 -2235 0 -2235 0 0
-1775z m2076 963 l84 -53 0 -548 c0 -529 -1 -548 -18 -535 -10 7 -53 40 -94
73 l-76 60 -128 378 c-70 207 -131 377 -135 377 -17 0 -31 -77 -27 -149 4 -64
11 -88 41 -146 21 -39 57 -94 82 -122 l45 -51 -57 -51 c-32 -28 -62 -51 -66
-51 -20 0 -168 161 -187 203 -26 59 -50 192 -50 277 0 69 15 140 30 140 4 0
20 20 35 45 14 25 42 60 62 78 20 18 44 39 53 48 15 14 46 26 89 35 38 7 89
-89 172 -327 l44 -124 3 248 c1 136 5 247 8 247 4 0 44 -24 90 -52z m345 -165
l0 -208 50 98 c27 54 53 95 58 93 7 -5 96 -219 142 -341 l11 -30 20 40 c13 25
23 66 26 111 6 102 -16 163 -86 233 l-54 54 27 56 c46 97 47 98 98 68 58 -34
110 -93 145 -164 43 -86 55 -141 50 -235 -3 -68 -9 -95 -36 -152 -52 -111
-195 -296 -228 -296 -25 0 -103 112 -121 173 -11 42 -19 55 -24 44 -9 -16 -69
-366 -69 -402 0 -16 -22 -33 -90 -72 l-90 -52 0 542 0 542 78 52 c42 28 80 52
85 52 4 1 7 -92 8 -206z m-1666 -1226 l60 -102 3 103 c3 101 3 102 27 102 l25
0 0 -155 0 -155 -27 0 c-25 0 -35 12 -88 106 l-60 106 -3 -106 c-3 -105 -3
-106 -27 -106 l-25 0 0 155 0 155 28 0 c24 0 34 -12 87 -103z m195 53 c0 -27
2 -50 4 -50 1 0 17 5 35 11 24 8 39 8 62 -1 43 -18 59 -56 59 -145 0 -73 -1
-75 -25 -75 -24 0 -25 2 -25 70 0 57 -4 74 -20 90 -25 25 -32 25 -61 1 -19
-16 -24 -30 -27 -90 -4 -67 -6 -72 -26 -69 -20 3 -21 8 -24 156 l-3 152 26 0
c23 0 25 -3 25 -50z m490 -1 c0 -48 1 -50 23 -42 29 10 80 7 105 -6 11 -6 27
-27 37 -47 35 -75 -15 -164 -93 -164 -21 0 -42 3 -45 6 -13 13 14 44 38 44 47
0 77 55 51 95 -12 19 -25 25 -51 25 -52 0 -65 -20 -65 -101 0 -67 -1 -69 -25
-69 l-25 0 0 155 0 155 25 0 c23 0 25 -3 25 -51z m502 24 c3 -16 4 -49 3 -75
-1 -27 1 -48 5 -48 3 0 19 14 35 30 21 22 38 30 62 30 41 0 41 -8 3 -40 -17
-14 -38 -36 -46 -49 -16 -23 -14 -25 37 -77 l53 -54 -35 0 c-27 0 -43 8 -69
35 -19 19 -37 35 -40 35 -4 0 -6 -15 -6 -32 1 -29 -2 -33 -24 -33 l-25 0 -1
130 c0 71 2 139 4 152 6 33 38 30 44 -4z m333 -75 c16 -53 32 -99 35 -102 3
-3 19 42 35 100 28 100 31 104 57 104 26 0 29 -5 62 -107 19 -60 36 -101 39
-93 3 8 15 49 27 90 12 41 24 83 26 93 5 16 54 26 54 9 0 -12 -78 -281 -85
-292 -10 -17 -53 -12 -59 8 -35 120 -60 192 -66 185 -4 -4 -12 -26 -18 -48
-44 -160 -42 -156 -70 -153 -24 3 -29 13 -74 153 -26 83 -48 151 -48 153 0 2
12 2 27 0 25 -3 30 -11 58 -100z m635 51 c0 -45 2 -50 18 -44 38 16 53 17 81
5 42 -17 61 -64 61 -149 0 -69 -1 -71 -25 -71 -24 0 -25 2 -25 70 0 57 -4 74
-21 91 -14 14 -27 18 -42 13 -37 -11 -41 -22 -45 -99 -4 -71 -5 -75 -28 -75
l-24 0 0 155 0 155 25 0 c23 0 25 -3 25 -51z m690 0 c0 -45 2 -50 18 -44 38
16 53 17 83 5 43 -18 59 -56 59 -145 0 -73 -1 -75 -25 -75 -24 0 -25 2 -25 68
0 40 -5 75 -12 84 -21 25 -46 28 -70 9 -18 -15 -23 -31 -26 -90 -4 -67 -6 -72
-26 -69 -20 3 -21 9 -24 143 -1 76 0 145 2 152 3 7 15 13 26 13 17 0 20 -6 20
-51z m-2305 -43 c36 -16 65 -59 65 -100 0 -25 -2 -25 -87 -28 -83 -3 -86 -4
-69 -21 12 -12 31 -17 62 -15 85 3 76 -40 -11 -50 -102 -11 -159 100 -93 183
35 45 76 54 133 31z m537 -24 c17 -16 31 -44 35 -65 l6 -37 -87 0 c-48 0 -86
-4 -86 -10 0 -16 35 -30 72 -28 19 1 43 -4 53 -9 17 -10 16 -12 -13 -27 -77
-40 -158 -1 -169 81 -15 109 112 173 189 95z m961 28 l37 0 0 -110 0 -110 -25
0 c-24 0 -25 2 -25 64 0 69 -15 99 -57 111 -17 4 -30 -1 -48 -19 -43 -43 -26
-92 35 -105 26 -5 36 -13 38 -29 3 -20 -1 -22 -37 -22 -110 0 -151 153 -57
212 22 13 41 17 66 13 19 -3 52 -6 73 -5z m455 -1 c36 -12 72 -64 72 -103 l0
-26 -85 0 c-48 0 -85 -4 -85 -10 0 -16 36 -30 77 -30 21 0 44 -4 51 -9 38 -23
-85 -54 -127 -31 -28 14 -61 68 -61 98 0 40 30 89 63 106 38 19 54 19 95 5z
m271 -14 c14 -13 14 -17 0 -30 -11 -12 -22 -13 -40 -7 -30 12 -64 0 -78 -27
-16 -29 -14 -44 10 -70 18 -19 29 -22 60 -18 27 3 42 0 51 -10 30 -37 -83 -60
-130 -27 -26 18 -52 65 -52 94 0 38 30 88 63 104 37 19 93 15 116 -9z m-1739
-315 c0 -5 -16 -10 -36 -10 -31 0 -35 -3 -32 -22 2 -16 12 -25 33 -29 l30 -6
-30 -4 c-26 -3 -30 -8 -30 -36 0 -18 -3 -33 -7 -33 -5 0 -8 34 -8 75 l0 75 40
0 c22 0 40 -4 40 -10z m89 -70 c1 -44 -2 -70 -8 -70 -7 0 -11 29 -11 76 0 94
16 90 19 -6z m171 70 c0 -5 -9 -10 -20 -10 -18 0 -20 -7 -20 -65 0 -37 -4 -65
-10 -65 -6 0 -10 28 -10 65 0 58 -2 65 -20 65 -11 0 -20 5 -20 10 0 6 23 10
50 10 28 0 50 -4 50 -10z m120 -51 l35 -61 6 63 6 64 1 -77 c1 -43 -2 -78 -7
-78 -4 0 -23 27 -40 60 -18 33 -35 60 -38 60 -3 0 -3 -19 -1 -43 3 -23 1 -51
-3 -62 -5 -12 -8 9 -8 58 -1 42 2 77 7 77 4 0 23 -28 42 -61z m220 51 c0 -5
-16 -10 -36 -10 -31 0 -35 -3 -32 -22 2 -16 12 -25 33 -29 l30 -7 -33 -1 c-30
-1 -33 -4 -30 -28 2 -23 9 -29 38 -34 34 -6 34 -6 -10 -8 l-45 -1 2 53 c1 28
2 62 3 75 0 19 5 22 40 22 22 0 40 -4 40 -10z m150 -1 c12 -8 10 -10 -10 -8
-42 2 -50 0 -50 -16 0 -8 13 -21 30 -30 39 -20 53 -47 37 -69 -15 -20 -78 -19
-85 2 -3 10 2 10 22 1 20 -9 29 -9 41 1 23 19 19 28 -25 50 -43 22 -53 52 -22
69 22 13 43 13 62 0z m158 -7 c3 -11 0 -12 -15 -4 -23 13 -48 0 -40 -21 3 -8
18 -21 34 -29 67 -32 19 -99 -51 -72 -9 3 -13 10 -10 15 3 5 14 4 25 -2 11 -6
27 -8 35 -5 25 9 15 36 -21 57 -36 22 -44 46 -23 67 16 16 60 11 66 -6z"/>
<path d="M1223 1309 c-44 -16 -35 -29 21 -29 31 0 56 4 56 9 0 15 -53 29 -77
20z"/>
<path d="M1728 1308 c-45 -15 -32 -28 28 -28 47 0 55 2 45 14 -16 20 -42 24
-73 14z"/>
<path d="M3183 1309 c-45 -16 -35 -29 23 -29 47 0 55 2 45 14 -16 19 -42 25
-68 15z"/>
</g>
</svg>
